<svg height="512pt" viewBox="0 -85 512.1 512" width="512pt" xmlns="http://www.w3.org/2000/svg"><path d="m256 123.851562c-141.398438 0-256-27.703124-256-61.902343v226.800781c0 10.398438 18.398438 20.101562 49.398438 27.898438 46.601562 15.300781 121.800781 25.300781 206.601562 25.300781s160-10 206.601562-25.300781c31.097657-7.796876 49.398438-17.5 49.398438-27.898438v-226.800781c0 34.199219-114.601562 61.902343-256 61.902343zm0 0" fill="#74c26c"/><path d="m459.5 99.449219v189.199219c0 10.402343-18.398438 20.101562-49.398438 27.902343-41.703124 13.699219-106.300781 23.199219-180.300781 25 8.597657.199219 17.398438.300781 26.300781.300781 84.796876 0 160-10 206.597657-25.300781 31.101562-7.800781 49.402343-17.5 49.402343-27.902343v-226.699219c-.101562 14.101562-19.703124 27.101562-52.601562 37.5zm0 0" fill="#68ad61"/><path d="m313.300781 1.648438-28.800781-1.199219c-9.398438-.300781-18.898438-.3984378-28.5-.3984378-141.398438 0-256 27.6992188-256 61.8984378s114.601562 61.902343 256 61.902343 256-27.703124 256-61.902343c0-29.398438-84.898438-54-198.699219-60.300781zm0 0" fill="#bdbdbd"/><g fill="#a6a6a6"><path d="m256 115.148438c-135.398438 0-246.199219-25.398438-255.398438-57.5-.402343 1.402343-.601562 2.902343-.601562 4.300781 0 34.199219 114.601562 61.902343 256 61.902343s256-27.703124 256-61.902343c0-1.5-.199219-2.898438-.601562-4.300781-9.199219 32.101562-120 57.5-255.398438 57.5zm0 0"/><path d="m313.300781 1.648438-28.800781-1.199219c-9.398438-.300781-18.898438-.3984378-28.5-.3984378-8.199219 0-16.300781.0976568-24.199219.3007808 1.699219 0 3.5.097657 5.199219.097657l28.800781 1.199219c113.800781 6.300781 198.699219 30.902343 198.699219 60.300781 0 32.199219-102 58.699219-232.300781 61.601562 7.800781.199219 15.699219.300781 23.800781.300781 141.398438 0 256-27.703124 256-61.902343 0-29.398438-84.898438-54-198.699219-60.300781zm0 0"/><path d="m214.300781 51.25h-16.402343c-7.898438 0-15.699219-1.800781-22.796876-5.300781-7.101562-3.597657-16.5-5.699219-26.800781-5.699219-21.902343 0-39.601562 9.699219-39.601562 21.699219s17.699219 21.699219 39.601562 21.699219c10.398438 0 19.800781-2.199219 26.800781-5.699219 7.097657-3.597657 14.898438-5.300781 22.796876-5.300781h16.402343c5.898438 0 10.699219-4.796876 10.699219-10.699219 0-5.898438-4.800781-10.699219-10.699219-10.699219zm0 0"/></g><path d="m334.398438 231.851562c0 43.296876-35.097657 78.398438-78.398438 78.398438s-78.398438-35.101562-78.398438-78.398438c0-43.300781 35.097657-78.402343 78.398438-78.402343s78.398438 35.101562 78.398438 78.402343zm0 0" fill="#f7e29c"/><path d="m246.800781 275.949219c-8.5 0-16.5-4.800781-20.402343-12.898438-5.296876-11.199219-.398438-24.601562 10.800781-29.902343 6.199219-2.898438 5.902343-9.5 5.5-12.199219-3.800781-7.097657-3.597657-16.097657 1.199219-23.199219 7-10.300781 21-13 31.300781-6 13.5 9.199219 13 30.199219 12.5 36.398438-1.597657 20.5-13 37.101562-31.300781 45.703124-3.199219 1.398438-6.398438 2.097657-9.597657 2.097657zm0 0" fill="#74c26c"/></svg>