<svg height="512" viewBox="0 0 64 64" width="512" xmlns="http://www.w3.org/2000/svg"><g id="Flat"><g id="Stroke_copy_2" data-name="Stroke copy 2"><g><path d="m48 61h-5l-12-2-15 2-6-1-4 1v-8l2-8-2-9 3-10-2-5-1-7v-4l-2-7 7 1 10-1 14 2 7-2h8l-2 7v4 10l-2 11 2 8-2 11z" fill="#d0d8da"/><path d="m39.671 54.612a24.808 24.808 0 0 0 -7.36-.12l-7.622 1.016a24.808 24.808 0 0 1 -7.36-.12l-1.761-.288a2.763 2.763 0 0 0 -1.127.045 2.769 2.769 0 0 1 -3.441-2.692v-4.112a2.773 2.773 0 0 1 .083-.672l.855-3.419a18.565 18.565 0 0 0 .112-8.526 18.556 18.556 0 0 1 .34-9.358l.158-.525a14.472 14.472 0 0 0 -.425-9.532 2.75 2.75 0 0 1 -.17-.637l-.925-6.472a2.71 2.71 0 0 1 -.028-.4v-3.412a2.759 2.759 0 0 0 -.107-.761l-.191-.67-6.702-.957 2 7v4l1 7 2 5-3 10 2 9-2 8v8l4-1 6 1 15-2 12 2h5l-1.5-5.25z" fill="#93999a"/><g><path d="m40 31a12 12 0 0 0 -12.225-12 12.262 12.262 0 0 0 -11.775 12.4v15.326a8.182 8.182 0 0 0 7.467 8.257 8 8 0 0 0 8.533-7.983c0-.063 0-.126 0-.189a7.347 7.347 0 0 1 3.073-6.126 11.962 11.962 0 0 0 4.927-9.685z" fill="#aae1f9"/><path d="m30.467 48.983a8.182 8.182 0 0 1 -7.467-8.257v-15.326a12.611 12.611 0 0 1 1.43-5.829 12.439 12.439 0 0 0 -8.43 11.829v15.326a8.182 8.182 0 0 0 7.467 8.257 8 8 0 0 0 8.283-6.029 8.161 8.161 0 0 1 -1.283.029z" fill="#57b7eb"/><path d="m23.726 50.991a4.207 4.207 0 0 1 -3.726-4.265v-15.326a8.249 8.249 0 0 1 7.849-8.4h.151a8.009 8.009 0 0 1 8 8 7.914 7.914 0 0 1 -3.286 6.454 11.4 11.4 0 0 0 -4.714 9.446 4.033 4.033 0 0 1 -1.17 2.925 3.978 3.978 0 0 1 -2.83 1.175s-.183 0-.274-.009z" fill="#f89c8d"/><circle cx="28" cy="31" fill="#aae1f9" r="2"/><path d="m27.764 48.29a8.344 8.344 0 0 1 -4.764-7.564v-15.326c0-.189.026-.372.034-.56a8.564 8.564 0 0 0 -3.034 6.56v15.326a4.207 4.207 0 0 0 3.726 4.265c.091.009.274.009.274.009a3.978 3.978 0 0 0 2.829-1.171 3.917 3.917 0 0 0 .935-1.539z" fill="#f8664f"/></g><path d="m6 10h42v4h-42z" fill="#aae1f9"/><path d="m14.983 10h-8.983v4h15.775a12.216 12.216 0 0 1 -6.792-4z" fill="#57b7eb"/><g><circle cx="48" cy="20" fill="#57b7eb" r="12"/><path d="m54 28a11.994 11.994 0 0 1 -9.346-19.518 12 12 0 1 0 12.692 19.036 12 12 0 0 1 -3.346.482z" fill="#4891d3"/><path d="m55.669 21.3-2.331.625-1.74-1v-1.847l1.74-1 2.331.625a1.015 1.015 0 0 0 .26.034 1 1 0 0 0 .258-1.966l-1.766-.473.473-1.766a1 1 0 1 0 -1.932-.518l-.624 2.332-1.74 1-1.598-.924v-2.008l1.707-1.707a1 1 0 0 0 -1.414-1.414l-1.293 1.293-1.293-1.293a1 1 0 0 0 -1.414 1.414l1.707 1.707v2.008l-1.6.923-1.74-1-.624-2.332a1 1 0 0 0 -1.932.518l.473 1.766-1.766.473a1 1 0 0 0 .258 1.966 1.015 1.015 0 0 0 .26-.034l2.331-.625 1.74 1v1.844l-1.74 1-2.329-.621a1 1 0 1 0 -.518 1.932l1.766.473-.473 1.766a1 1 0 0 0 .707 1.225 1.013 1.013 0 0 0 .259.034 1 1 0 0 0 .966-.741l.624-2.332 1.74-1 1.6.923v2.008l-1.707 1.707a1 1 0 0 0 1.414 1.414l1.291-1.295 1.293 1.293a1 1 0 0 0 1.414-1.414l-1.707-1.707v-2.008l1.6-.923 1.74 1 .624 2.332a1 1 0 0 0 .966.741 1.013 1.013 0 0 0 .259-.034 1 1 0 0 0 .707-1.225l-.473-1.766 1.766-.473a1 1 0 1 0 -.518-1.932zm-6.069-.377-1.6.922-1.6-.922v-1.846l1.6-.922 1.6.922z" fill="#aae1f9"/><g fill="#57b7eb"><path d="m41.579 23.707-.473 1.766a1 1 0 0 0 .707 1.225 1.013 1.013 0 0 0 .259.034 1 1 0 0 0 .966-.741l.624-2.332.767-.442a12.014 12.014 0 0 1 -1.074-1.69l-.693.4-2.331-.627a1 1 0 1 0 -.518 1.932z"/><path d="m49.293 28.707a.995.995 0 0 0 1.607-1.127 11.915 11.915 0 0 1 -3.982-1.91l-1.623 1.623a1 1 0 0 0 1.414 1.414l1.291-1.293z"/><path d="m39.106 17.991a1 1 0 0 0 .965.741 1.015 1.015 0 0 0 .26-.034l1.879-.5a11.6 11.6 0 0 1 .1-4.882.969.969 0 0 0 -.5-.01 1 1 0 0 0 -.707 1.225l.473 1.766-1.766.473a1 1 0 0 0 -.704 1.221z"/></g></g><g fill="#93999a"><path d="m48 43-2-8-6 8z"/><path d="m35 5 7-2-3 4z"/><path d="m17 16h7l-8 4z"/><path d="m34 48v4l7-1z"/></g><path d="m28 14 1.764-4h4.052z" fill="#57b7eb"/><path d="m24 13-2.236-3h5.052z" fill="#57b7eb"/></g></g></g></svg>