<svg height="460pt" viewBox="0 -5 460.86597 460" width="460pt" xmlns="http://www.w3.org/2000/svg"><path d="m221.507812 118.175781c-1.714843 0-3.417968-.257812-5.058593-.757812-11.59375-3.640625-24.023438-3.640625-35.617188 0-9.054687 2.785156-18.65625-2.296875-21.445312-11.351563-2.789063-9.058594 2.292969-18.660156 11.351562-21.449218 18.175781-5.625 37.628907-5.625 55.808594 0 8.105469 2.496093 13.164063 10.546874 11.90625 18.933593-1.261719 8.386719-8.464844 14.589844-16.945313 14.59375zm0 0" fill="#39475c"/><path d="m355.976562 91.417969c-1.210937-1.214844-2.234374-2.597657-3.039062-4.113281-5.621094-10.769532-14.40625-19.558594-25.175781-25.183594-8.222657-4.492188-11.3125-14.753906-6.9375-23.039063 4.375-8.285156 14.589843-11.519531 22.9375-7.265625 16.832031 8.878906 30.585937 22.632813 39.464843 39.464844 3.953126 7.496094 1.835938 16.757812-4.980468 21.792969-6.820313 5.03125-16.292969 4.328125-22.292969-1.65625zm0 0" fill="#ffb531"/><path d="m81.707031 64.625c1.210938-1.210938 2.597657-2.238281 4.109375-3.039062 10.765625-5.617188 19.554688-14.394532 25.1875-25.152344 4.488282-8.222656 14.753906-11.3125 23.035156-6.9375 8.285157 4.375 11.523438 14.589844 7.265626 22.9375-8.875 16.832031-22.632813 30.585937-39.460938 39.464844-7.5 3.964843-16.769531 1.851562-21.808594-4.96875-5.039062-6.824219-4.332031-16.304688 1.664063-22.304688zm0 0" fill="#ffb531"/><path d="m307.65625 237.769531c1.214844-1.210937 2.597656-2.238281 4.113281-3.039062 10.769531-5.625 19.558594-14.410157 25.183594-25.175781 4.492187-8.222657 14.753906-11.3125 23.039063-6.941407 8.285156 4.375 11.523437 14.59375 7.265624 22.941407-8.875 16.828124-22.632812 30.585937-39.464843 39.460937-7.496094 3.957031-16.757813 1.839844-21.789063-4.980469-5.035156-6.816406-4.332031-16.289062 1.652344-22.289062zm0 0" fill="#39475c"/><path d="m4.699219 237.121094 22.628906-22.628906c6.25-6.25 16.378906-6.25 22.628906 0 6.246094 6.246093 6.246094 16.378906 0 22.628906l-22.628906 22.625c-6.25 6.25-16.378906 6.25-22.628906 0-6.246094-6.246094-6.246094-16.378906 0-22.625zm0 0" fill="#5f9548"/><path d="m65.042969 267.167969c1.210937-1.207031 2.597656-2.230469 4.109375-3.03125 10.769531-5.625 19.558594-14.414063 25.1875-25.183594 4.488281-8.222656 14.753906-11.3125 23.039062-6.9375 8.28125 4.375 11.519532 14.589844 7.261719 22.9375-8.871094 16.832031-22.628906 30.589844-39.460937 39.464844-7.488282 3.917969-16.714844 1.796875-21.738282-5-5.023437-6.796875-4.34375-16.242188 1.601563-22.25zm0 0" fill="#39475c"/><path d="m262.640625 48.433594h-64c-13.253906 0-24-10.746094-24-24l24-24h64c13.257813 0 24 10.746094 24 24s-10.742187 24-24 24zm0 0" fill="#95573a"/><path d="m186.929688 225.402344-45.253907-45.257813c-9.371093-9.371093-9.371093-24.5625 0-33.933593h33.933594l45.257813 45.253906c9.367187 9.371094 9.367187 24.5625 0 33.9375-9.375 9.367187-24.566407 9.367187-33.9375 0zm0 0" fill="#95573a"/><path d="m381.675781 255.464844 45.253907-45.253906c9.371093-9.371094 24.5625-9.371094 33.9375 0v33.933593l-45.257813 45.257813c-9.371094 9.367187-24.5625 9.367187-33.933594 0-9.371093-9.375-9.371093-24.566406 0-33.9375zm0 0" fill="#95573a"/><path d="m126.640625 376.433594h-64c-13.253906 0-24-10.746094-24-24l24-24h64c13.257813 0 24 10.746094 24 24s-10.742187 24-24 24zm0 0" fill="#95573a"/><path d="m425.195312 173.730469-7.785156 1.292969c-13.53125 2.257812-27.339844 2.257812-40.871094 0l-7.785156-1.292969c-11.414062-1.902344-19.78125-11.78125-19.777344-23.351563.003907-6.960937 3.066407-13.5625 8.375-18.0625 5.304688-4.496094 12.324219-6.429687 19.1875-5.292968 13.53125 2.257812 27.339844 2.257812 40.871094 0 6.863282-1.140626 13.882813.792968 19.191406 5.292968 5.3125 4.496094 8.375 11.101563 8.375 18.0625.003907 11.570313-8.367187 21.449219-19.78125 23.351563zm0 0" fill="#e94f4f"/><path d="m398.640625 148.28125c-7.492187-.09375-14.757813-2.589844-20.726563-7.121094-3.566406-2.609375-4.339843-7.617187-1.726562-11.183594 2.609375-3.566406 7.617188-4.339843 11.183594-1.726562 6.574218 5.316406 15.96875 5.316406 22.542968 0 3.566407-2.613281 8.574219-1.839844 11.183594 1.726562 2.613282 3.566407 1.835938 8.574219-1.726562 11.183594-5.96875 4.535156-13.234375 7.03125-20.730469 7.121094zm0 0" fill="#39475c"/><path d="m68.027344 187.234375-6.402344-4.585937c-11.160156-7.972657-20.925781-17.738282-28.894531-28.902344l-4.59375-6.402344c-6.734375-9.417969-5.675781-22.324219 2.503906-30.519531 4.921875-4.917969 11.757813-7.425781 18.691406-6.847657 6.9375.574219 13.265625 4.171876 17.308594 9.832032 7.976563 11.160156 17.742187 20.925781 28.90625 28.894531 5.65625 4.046875 9.25 10.378906 9.824219 17.3125.574218 6.933594-1.929688 13.769531-6.847656 18.6875-8.183594 8.183594-21.082032 9.253906-30.496094 2.53125zm0 0" fill="#e94f4f"/><path d="m86.640625 159.066406c-.410156-.003906-.816406-.035156-1.222656-.097656-15.339844-1.886719-27.425781-13.972656-29.3125-29.3125-.546875-2.875.523437-5.820312 2.789062-7.679688 2.265625-1.855468 5.363281-2.324218 8.078125-1.222656 2.714844 1.097656 4.609375 3.59375 4.941406 6.503906.878907 8.410157 7.523438 15.058594 15.9375 15.933594 4.039063.726563 6.875 4.390625 6.5625 8.484375-.308593 4.09375-3.667968 7.285157-7.773437 7.390625zm0 0" fill="#39475c"/><path d="m249.296875 140.753906 4.59375-6.402344c7.96875-11.160156 17.734375-20.925781 28.894531-28.894531l6.402344-4.59375c9.414062-6.726562 22.316406-5.65625 30.496094 2.53125 4.917968 4.917969 7.425781 11.753907 6.851562 18.6875-.574218 6.933594-4.167968 13.265625-9.828125 17.3125-11.164062 7.972657-20.929687 17.738281-28.90625 28.902344-4.042969 5.660156-10.375 9.257813-17.308593 9.828125-6.933594.574219-13.769532-1.933594-18.691407-6.851562-8.1875-8.191407-9.246093-21.105469-2.503906-30.519532zm0 0" fill="#e94f4f"/><path d="m286.640625 168.433594c-2.335937.003906-4.554687-1.015625-6.078125-2.785156-1.523438-1.773438-2.195312-4.121094-1.839844-6.429688 1.882813-15.34375 13.964844-27.433594 29.304688-29.320312 4.3125-.578126 8.296875 2.402343 8.960937 6.703124.667969 4.300782-2.226562 8.347657-6.515625 9.101563-8.410156.886719-15.058594 7.53125-15.941406 15.945313-.601562 3.894531-3.949219 6.773437-7.890625 6.785156zm0 0" fill="#39475c"/><path d="m322.859375 375.464844-7.785156 1.296875c-13.527344 2.253906-27.335938 2.253906-40.863281 0l-7.785157-1.296875c-11.414062-1.902344-19.78125-11.78125-19.785156-23.351563 0-6.960937 3.0625-13.566406 8.371094-18.066406 5.3125-4.496094 12.332031-6.429687 19.199219-5.285156 13.527343 2.253906 27.335937 2.253906 40.863281 0 6.863281-1.144531 13.886719.789062 19.195312 5.285156 5.3125 4.5 8.375 11.105469 8.371094 18.066406 0 11.570313-8.367187 21.449219-19.78125 23.351563zm0 0" fill="#e94f4f"/><path d="m294.640625 350.03125c-7.496094-.089844-14.761719-2.59375-20.726563-7.132812-2.359374-1.671876-3.632812-4.480469-3.335937-7.355469s2.121094-5.367188 4.773437-6.515625c2.652344-1.148438 5.714844-.78125 8.019532.964844 6.570312 5.328124 15.972656 5.328124 22.542968 0 3.5625-2.519532 8.492188-1.71875 11.074219 1.804687 2.582031 3.519531 1.859375 8.460937-1.617187 11.101563-5.964844 4.539062-13.234375 7.039062-20.730469 7.132812zm0 0" fill="#39475c"/><path d="m147.050781 412.753906 4.589844-6.402344c7.972656-11.160156 17.734375-20.925781 28.898437-28.894531l6.398438-4.59375c9.417969-6.726562 22.316406-5.65625 30.496094 2.53125 4.921875 4.917969 7.425781 11.753907 6.855468 18.6875-.574218 6.933594-4.167968 13.265625-9.832031 17.3125-11.164062 7.972657-20.929687 17.738281-28.902343 28.902344-4.046876 5.660156-10.375 9.257813-17.3125 9.828125-6.933594.574219-13.769532-1.933594-18.6875-6.851562-8.191407-8.191407-9.253907-21.105469-2.503907-30.519532zm0 0" fill="#e94f4f"/><path d="m182.640625 440.433594c-2.335937.003906-4.554687-1.015625-6.078125-2.785156-1.523438-1.773438-2.195312-4.121094-1.839844-6.429688 1.882813-15.34375 13.96875-27.433594 29.3125-29.320312 4.3125-.578126 8.296875 2.402343 8.960938 6.703124.667968 4.300782-2.226563 8.347657-6.515625 9.101563-8.414063.882813-15.066407 7.53125-15.949219 15.945313-.601562 3.894531-3.949219 6.773437-7.890625 6.785156zm0 0" fill="#39475c"/><g fill="#5f9548"><path d="m177.957031 277.113281 22.628907 22.628907c6.246093 6.246093 6.246093 16.378906 0 22.625-6.25 6.25-16.378907 6.25-22.628907 0l-22.628906-22.625c-6.246094-6.25-6.246094-16.378907 0-22.628907 6.25-6.25 16.378906-6.25 22.628906 0zm0 0"/><path d="m294.640625 408.433594h32c8.839844 0 16 7.164062 16 16 0 8.835937-7.160156 16-16 16h-32c-8.835937 0-16-7.164063-16-16 0-8.835938 7.164063-16 16-16zm0 0"/><path d="m406.640625 344.433594v32c0 8.835937-7.160156 16-16 16-8.835937 0-16-7.164063-16-16v-32c0-8.835938 7.164063-16 16-16 8.839844 0 16 7.164062 16 16zm0 0"/><path d="m270.640625 256.433594v32c0 8.835937-7.160156 16-16 16-8.835937 0-16-7.164063-16-16v-32c0-8.835938 7.164063-16 16-16 8.839844 0 16 7.164062 16 16zm0 0"/></g></svg>