<svg id="Capa_1" enable-background="new 0 0 512 512" height="512" viewBox="0 0 512 512" width="512" xmlns="http://www.w3.org/2000/svg"><g><g><path d="m275.058 120.531h113.32c11.379 0 20.604 9.225 20.604 20.604v113.32h-133.924z" fill="#e3a67b"/></g><g><path d="m336.869 213.247c-11.379 0-20.604-9.225-20.604-20.604v-51.509c0-11.379 9.225-20.604 20.604-20.604h-61.811v133.924h133.924v-41.207z" fill="#d99668"/></g><g><path d="m429.586 244.153h-34.339l-27.472 22.215-27.472-22.215h-65.245v175.131h175.131v-154.527c0-11.379-9.224-20.604-20.603-20.604z" fill="#ffce76"/></g><g><path d="m336.869 244.153h-61.811v175.131h41.207v-154.527c.001-11.379 9.225-20.604 20.604-20.604z" fill="#ffc247"/></g><g><path d="m264.757 82.414h-34.339l-27.612 27.331-27.331-27.331h-65.245v254.455c0 45.516 36.898 82.414 82.414 82.414h92.716v-316.265c0-11.379-9.224-20.604-20.603-20.604z" fill="#ffee6e"/></g><g><path d="m151.437 103.018c0-11.379 9.225-20.604 20.604-20.604h-61.811v254.455c0 30.5 16.581 57.11 41.207 71.361z" fill="#ffe45c"/></g><g><g><path d="m491.396 450.189h-288.45c-68.274 0-123.622-55.347-123.622-123.622v-244.153c0-22.758-18.449-41.207-41.207-41.207h-17.513c-11.379 0-20.604-9.224-20.604-20.603 0-11.379 9.225-20.604 20.604-20.604h17.513c45.516 0 82.414 36.898 82.414 82.414v244.153c0 45.516 36.898 82.414 82.414 82.414h288.451c11.379 0 20.604 9.225 20.604 20.604 0 11.38-9.225 20.604-20.604 20.604z" fill="#e9edf5"/></g></g><g><path d="m275.058 429.586c0-11.379 9.225-20.604 20.604-20.604h-92.716c-45.411 0-82.236-36.73-82.407-82.101-.001 0-.008-.001-.008-.001 0 11.379-9.225 20.604-20.604 20.604-11.344 0-20.541-9.169-20.598-20.499.225 68.082 55.481 123.205 123.616 123.205h92.716c-11.378-.001-20.603-9.225-20.603-20.604z" fill="#dce1eb"/></g><g><circle cx="172.04" cy="450.189" fill="#7e8596" r="61.811"/></g><g><path d="m172.04 388.378c-34.137 0-61.811 27.674-61.811 61.811s27.674 61.811 61.811 61.811c-11.379 0-20.604-9.225-20.604-20.604s9.225-20.604 20.604-20.604v-41.207c-11.379 0-20.604-9.225-20.604-20.604.001-11.378 9.225-20.603 20.604-20.603z" fill="#707789"/></g><g><circle cx="172.04" cy="450.189" fill="#636978" r="20.604"/></g><g><circle cx="419.284" cy="450.189" fill="#7e8596" r="61.811"/></g><g><path d="m419.284 388.378c-34.137 0-61.811 27.674-61.811 61.811s27.674 61.811 61.811 61.811c-11.379 0-20.604-9.225-20.604-20.604s9.225-20.604 20.604-20.604v-41.207c-11.379 0-20.604-9.225-20.604-20.604 0-11.378 9.225-20.603 20.604-20.603z" fill="#707789"/></g><g><circle cx="419.284" cy="450.189" fill="#636978" r="20.604"/></g><g><path d="m175.474 231.865c0 8.21 9.206 13.227 15.984 8.593 2.821-1.929 6.096-3.516 11.488-3.516s8.667 1.588 11.488 3.516c6.777 4.634 15.984-.383 15.984-8.593v-149.451h-54.943v149.451z" fill="#e0b8ff"/></g><g><g><path d="m202.946 180.418c-15.172 0-27.472-12.299-27.472-27.471v78.918c0 8.21 9.206 13.227 15.984 8.593 2.82-1.929 6.096-3.516 11.488-3.516s8.667 1.588 11.488 3.516c6.777 4.634 15.984-.383 15.984-8.593v-78.918c-.001 15.172-12.3 27.471-27.472 27.471z" fill="#d2a0f5"/></g></g><g><path d="m340.303 326.641c0 8.21 9.206 13.227 15.984 8.593 2.821-1.929 6.096-3.516 11.488-3.516s8.667 1.587 11.488 3.516c6.777 4.634 15.984-.383 15.984-8.593v-82.488h-54.943v82.488z" fill="#ff9696"/></g><g><g><path d="m367.775 306.1c-15.172 0-27.472-12.299-27.472-27.471v48.013c0 8.21 9.206 13.227 15.984 8.593 2.82-1.929 6.096-3.516 11.488-3.516s8.667 1.588 11.488 3.516c6.777 4.634 15.984-.383 15.984-8.593v-48.013c-.001 15.172-12.3 27.471-27.472 27.471z" fill="#ff7d81"/></g></g></g></svg>